<svg data-v-decfdd8a="" version="1.0" xmlns="http://www.w3.org/2000/svg" xmlns:xlink="http://www.w3.org/1999/xlink" width="100%" height="100%" viewBox="0 0 340.000000 250.000000" preserveAspectRatio="xMidYMid meet" color-interpolation-filters="sRGB" style="margin: auto;"> <rect data-v-decfdd8a="" x="0" y="0" width="100%" height="100%" fill="#fff" fill-opacity="0" class="background"></rect> <rect data-v-decfdd8a="" x="0" y="0" width="100%" height="100%" fill="url(#watermark)" fill-opacity="1" class="watermarklayer"></rect> <g data-v-decfdd8a="" fill="#1A1A1A" class="icon-text-wrapper icon-svg-group iconsvg" transform="translate(126.35499954223633,58.08265686035156)"><g class="iconsvg-imagesvg" transform="matrix(1,0,0,1,13.645000457763672,0)" opacity="1"><g><rect fill="#1A1A1A" fill-opacity="0" stroke-width="2" x="0" y="0" width="60" height="81.92468390726125" class="image-rect"></rect> <svg x="0" y="0" width="60" height="81.92468390726125" filtersec="colorsb5226392422" class="image-svg-svg primary" style="overflow: visible;"><svg xmlns="http://www.w3.org/2000/svg" viewBox="0 0 50.71000289916992 69.23999786376953"><title>u22</title><g data-name="图层 2"><g data-name="Layer 1"><path d="M10.05 48.77c.5 7.07 8.33 10.57 15.35 10.57s14.7-3.57 15.25-10.6a30.3 30.3 0 0 1-30.6 0z" fill="#f15a24"></path><path d="M40.65 48.74c-.55 7-8.34 10.6-15.25 10.6s-14.85-3.5-15.35-10.57C4.22 45.25 0 39.5 0 31.62V48c0 14 13.34 21.24 25.4 21.24 11.77 0 25.3-7.26 25.3-21.18V31.71c.01 7.81-4.24 13.52-10.05 17.03z" fill="#ed1c24"></path><path d="M10.05 48.77a30.3 30.3 0 0 0 30.6 0c0-.26.05-.51.05-.78V31.62C40.7 39.17 32.56 43 25.4 43S10 39.26 10 31.71v16.35c0 .24 0 .47.05.71z" fill="#f7931e"></path><path d="M40.7 31.62V48c0 .27 0 .52-.05.78 5.81-3.51 10.06-9.22 10.06-17V0h-10zM10.05 48.77V0H0v31.62c0 7.88 4.22 13.63 10.05 17.15z" fill="#1a1a1a"></path></g></g></svg></svg> <!----></g></g> <g transform="translate(0,88.9246826171875)"><g data-gra="path-name" fill-rule="" class="tp-name iconsvg-namesvg" opacity="1" transform="matrix(1,0,0,1,0,0)"><g transform="scale(1)"><g><path d="M43.81-36.73C43.81-39.5 43.18-41.49 41.93-42.7 40.67-43.92 38.78-44.52 36.27-44.52 35.14-44.52 34.18-44.44 33.38-44.27 32.58-44.09 31.8-43.77 31.04-43.29 30.28-42.81 29.72-42.08 29.35-41.08 28.98-40.08 28.8-38.85 28.8-37.38L28.8-16.12C28.8-15.21 28.74-14.47 28.63-13.91 28.52-13.35 28.31-12.78 27.98-12.22 27.66-11.66 27.15-11.25 26.46-10.99 25.76-10.72 24.87-10.6 23.79-10.6 22.71-10.6 21.82-10.76 21.13-11.08 20.43-11.41 19.88-11.98 19.47-12.8 19.06-13.63 18.83-14.73 18.79-16.12L18.79-37.31C18.79-40.21 18.12-42.14 16.8-43.09 15.48-44.05 13.54-44.52 10.99-44.52 8.91-44.52 7.18-43.8 5.82-42.35 4.45-40.9 3.77-39.02 3.77-36.73L3.77-17.36C3.77-11.42 5.38-6.98 8.61-4.03 11.84-1.08 16.9 0.39 23.79 0.39 31.03 0.39 36.17-0.99 39.23-3.74 42.28-6.49 43.81-11.03 43.81-17.36ZM82.29-21.39C84.54-21.64 86.5-23.09 88.17-25.71 89.84-28.33 90.68-32.02 90.68-36.79 90.68-39.69 90.18-41.71 89.18-42.84 88.18-43.96 86.23-44.52 83.33-44.52 80.64-44.52 78.69-43.98 77.48-42.9 76.27-41.82 75.66-40.15 75.66-37.9 75.66-33.34 75.35-30.33 74.72-28.86 74.09-27.39 72.84-26.65 70.98-26.65 70.11-26.65 69.39-26.77 68.8-27.01 68.22-27.25 67.78-27.56 67.5-27.95 67.22-28.34 67.08-28.82 67.08-29.38 67.08-30.07 67.09-31.25 67.11-32.92 67.13-34.59 67.15-36.1 67.15-37.44 67.15-38.96 66.94-40.2 66.53-41.18 66.12-42.15 65.49-42.87 64.64-43.32 63.8-43.78 62.93-44.09 62.04-44.27 61.15-44.44 60.04-44.52 58.7-44.52 56.4-44.52 54.74-43.84 53.72-42.48 52.7-41.11 52.2-39.07 52.2-36.34L52.2-9.23C52.2-5.89 52.79-3.52 53.98-2.11 55.17-0.7 57.03 0 59.54 0 62.14 0 64.11-0.75 65.45-2.24 66.8-3.74 67.47-6.22 67.47-9.69L67.47-16.9 70.92-16.9C71.69-16.9 72.31-16.85 72.77-16.74 73.22-16.63 73.69-16.38 74.17-15.99 74.64-15.6 75-15.03 75.24-14.27 75.48-13.51 75.67-12.49 75.82-11.21 75.97-9.93 76.05-8.34 76.05-6.44 76.05-4.96 76.31-3.76 76.83-2.83 77.35-1.9 78.16-1.19 79.27-0.72 80.37-0.24 81.77 0 83.46 0 85.58 0 87.16-0.27 88.21-0.81 89.25-1.35 89.98-2.35 90.41-3.8 90.85-5.25 91.06-7.48 91.06-10.46 91.06-13.54 90.16-16.07 88.34-18.04 86.52-20.01 84.5-21.13 82.29-21.39Z" transform="translate(-3.7699999809265137, 44.52000045776367)"></path></g> <!----> <!----> <!----> <!----> <!----> <!----> <!----></g></g> <!----></g></g><defs v-gra="od"></defs></svg>